/* XPM */
static char *_22_bc5d63d329070a14152c9752bdce295499f1932435ac2af2a9b1cad4919c1fb9[] = {
/* columns rows colors chars-per-pixel */
"80 80 161 2 ",
"   c #000304",
".  c #010907",
"X  c #00050A",
"o  c #030B0B",
"O  c #090D0C",
"+  c #07100F",
"@  c #09120F",
"#  c #060D11",
"$  c #090E12",
"%  c #0B1314",
"&  c #0F1817",
"*  c #0E1619",
"=  c #101416",
"-  c #151A16",
";  c #12161A",
":  c #131B1C",
">  c #181D19",
",  c #17201F",
"<  c #1C211D",
"1  c #161E21",
"2  c #191F24",
"3  c #1B2324",
"4  c #1F2826",
"5  c #1E2629",
"6  c #222625",
"7  c #202926",
"8  c #21272B",
"9  c #232B2C",
"0  c #2A2E2D",
"q  c #27302F",
"w  c #29322F",
"e  c #262E31",
"r  c #292E32",
"t  c #2B3334",
"y  c #2F3837",
"u  c #2E3639",
"i  c #323936",
"p  c #31373B",
"a  c #333B3C",
"s  c #37403E",
"d  c #363E41",
"f  c #3A3F41",
"g  c #3B4344",
"h  c #3F4847",
"j  c #3E4649",
"k  c #414546",
"l  c #41464A",
"z  c #424A4C",
"x  c #494F4F",
"c  c #47504F",
"v  c #49514F",
"b  c #464E51",
"n  c #4A4F53",
"m  c #475251",
"M  c #4B5354",
"N  c #4F5857",
"B  c #4E5659",
"V  c #4D5959",
"C  c #515955",
"Z  c #51565C",
"A  c #525A5C",
"S  c #585C5D",
"D  c #57605F",
"F  c #565E61",
"G  c #585E63",
"H  c #566162",
"J  c #5B6265",
"K  c #5F6867",
"L  c #5E6669",
"P  c #5E6869",
"I  c #606666",
"U  c #616A67",
"Y  c #61676B",
"T  c #626A6D",
"R  c #66706D",
"E  c #666D71",
"W  c #696E73",
"Q  c #6B6F78",
"!  c #667172",
"~  c #6A7275",
"^  c #6F7877",
"/  c #6E7679",
"(  c #6E797A",
")  c #727677",
"_  c #71777C",
"`  c #727A7D",
"'  c #77807E",
"]  c #767E81",
"[  c #787D83",
"{  c #758181",
"}  c #7A8285",
"|  c #7F8887",
" . c #7E8589",
".. c #7E8A8A",
"X. c #81878C",
"o. c #828A8D",
"O. c #87908F",
"+. c #88918E",
"@. c #868D91",
"#. c #888E94",
"$. c #869192",
"%. c #8A9295",
"&. c #8F9897",
"*. c #8E9599",
"=. c #8F999A",
"-. c #929D97",
";. c #91969B",
":. c #939B9D",
">. c #97A09F",
",. c #9AA59F",
"<. c #969DA1",
"1. c #999FA4",
"2. c #96A1A2",
"3. c #9BA2A5",
"4. c #9FA8A7",
"5. c #9EA6A9",
"6. c #9FA9AA",
"7. c #A0A4A7",
"8. c #A1AAA7",
"9. c #A1A6AB",
"0. c #A2ABAD",
"q. c #A7B0AF",
"w. c #A9B2AF",
"e. c #A6ADB1",
"r. c #A9AEB3",
"t. c #A6B0B1",
"y. c #AAB2B5",
"u. c #AFB8B7",
"i. c #AEB5B9",
"p. c #AEB9B9",
"a. c #B0B6BC",
"s. c #B2BABD",
"d. c #B9BFBF",
"f. c #B8C3BF",
"g. c #B3B7C2",
"h. c #B6BDC1",
"j. c #B8BEC4",
"k. c #B6C1C2",
"l. c #BAC2C5",
"z. c #BFC8C7",
"x. c #BEC5C9",
"c. c #BEC9CA",
"v. c #C0C6CC",
"b. c #C2CACD",
"n. c #C7D0CF",
"m. c #C0C7D1",
"M. c #C5CDD1",
"N. c #C8CFD5",
"B. c #CBCFD8",
"V. c #C7D2D2",
"C. c #CAD2D5",
"Z. c #CED5D9",
"A. c #CFD9DA",
"S. c #D1D7DD",
"D. c #D2DADD",
"F. c #D7E0DF",
"G. c #D5DDE2",
"H. c #DAE2E5",
"J. c #DDE3EA",
"K. c #E0E8EB",
"L. c #E4EAF0",
/* pixels */
"o & o   q m 4 y e q 5 X % Q j e t b e 1 1 g j g 9 d : 1 # u b e 9 a 2 8   $ f x ; t a r $ > r n 6 6 v z s % s v v + c N s s y z a 1 # M b j 3 g u * $ d d j a 8 ",
"% % . @ i 4 e 1 t 5 u 3 e 8 d * t g g 8 # j p * u 9 e * * : e $ % t f p 8 t 2 8 X > a l p r $ i O X k ) s w i y 4 . q C ^ s w z g   : d _ V u j b : X 3 d X d d ",
", . o - t h y & G j 1 b j 8 d u 9 J z g j B g 5 j u t u 5 * p d ; r l z 6 k l ; a a 6 J B 0 n Z i 9 y i M t u g g , y s N v v c g u 4 e z L J d u b : 9 2 X t b ",
"3 , y z &.o.0.o.} ( 5.#.] x.;.L l.1.! l.0.} j.j.:.F j d t  .@.e.5._ 3.) ` a.I r.:.W 7.y.X.r.1.;.a.,.0.y B M z e.q.+.^ >.+.U u.o.} a.] @.0.;.5.3.y.i.*.e.d X % 5 ",
". , s h z.K u.3.F g...] g.*.1.1.8.b.*.e.s.0.y.a.%...3 B V @.3.G b.3.l b.0.M s.9...0.b.3.} C.x...b.b.~ b b J ..*.P g.3.Z u.3.A 6.p.} <.a.i.~ l.b.! N.c.E J 9 % * ",
". 3 h s >.2.} ` g.*.B j.<.j m.5. .6.h.3.o.b.u.` B.*.X d b d e.<.J a.&.~ ` r.e.T h.y.J v.c.! :.V.$.+.N.d 5 G d g.$./ i.] ~ >.%.2.] y.e._ a.y.| l.Z.{ 0.x.G * 3 % ",
"  + q y ' z.%.+.<.] *.e.[ r.<.[ h.0.X.5.e.2.3.b.e.j * 1 8 J ..l.>.J y.$.` b.` :.3.$.e.0.3.p.%.t.e.r.h.2 d u 2 ;.j.#.Q g.;.Z c.5.P j.0.5.e.C.*.o.l.e.3.h.b 5 5 X ",
"& < & A q.m C.y.E e.g.] ;.e.5.[ h.h.~ M.l. .x.j...:.1 9 5 } e.F v.q.~ y.7.) 1.u.=.~ C.5.P D.p.{ b.b.~ b d u ] ;.] i.<.] 6.5.X.} j...T V.5.E M.p.W G.i.! J 5 5   ",
", , < , 4.s.` $.6.3.Q k.*.T j.g.E e.b.5.@.Z.k./ l.@.5 5 % z e.<.o.q.:.%...t.2.T k.k.P c.k.{ k.c.1.#.g.j j # T 5...e.5.} i.1. .1.} 5.l. .a.e.%.M.i.$.i.y.E g e % ",
"% 4   s ^ s.5.A g...{ 6.:...#.5.p.$.y.3.;.x.<.l.c.b 1 3 # j ..x.;.N s.=.H c.2...6.p...$.k.t...c.1.6.N.d d e 5 <.g.] ! B. .E x.e.~ h.a.^ 3.Z.<.o.Z.5.@.c.W b u u ",
"9 , 7 M z.T 0.5.J #.g...] g.#.E b.e.A x.C.o.a.b.@.W d 1 % @.l./ 6...! >.t...! 6.=.H c.t.P c.t...c.x.] e j 8 ` 3. .e. ./  .e.#.E i.*.T h.5.~ l.x.} l.x.:.u 9 F e ",
"w y - y q.q.&.:.<...H g.<.T g.e.J a.t.;.6.Z.p.T h.%.b d 1 E p.} 2.4.} =...=.t.! t.:.] p.6...k.c.y.#.i.j G d P s.E e.5.L 5.<.] 5.} *.3.%.x.$.@.C.e.y.0.<.B % j d ",
"t g , s ..l.2.` g.] ] r...#.e.<.%.5.x.<.*.x.=.y.x.F b B e m #.Z.%.~ k.' h c.2...t.0...2.k.2...F.<.o.C.q K K w q.f.' | q.] F x.6.E p.a.T t.h.9...L.3.] l.G $ # B ",
"& y v V V.! t.y.E ] g...L c.e.Z M.p.~ j.h.} y.Z.=.L t j B %.p.%.t.2.{ { 6.2.H c.2.V c.c.! k.k...t.c.$.9 h J ` >.3.q.o.| ! <.2.P l.e.J p.e.` M.0.@.e.i.6.g * 1 t ",
". 7 g s p.:.g.<.*.<.L g.*.] g.5.` p.0.%.%.V.l.E N.;.X t J [ h.( f.f.( 2.2...2...k.....c.....c.2.4.8.u.v 4 v ' u.U f.q.' 3.w.T 6.3.5.o.0.b.*...C.#.t.i.5.! 5 t * ",
"& . s g ( c.k.P k.*.Z 1.5.[ ..x.;.@.h.5...a.<.e.l./ # u j b :.c.=.( k.$.j k.t.P 2.k.2...c.t.H A.w.+.l.y i s i w.f.+.&.4.| U u.4.B p.h.~ e.e.:...m.x.} l./ : 2 5 ",
"& @ t c y.4.+.y.#.M g.:.F g.e.T x.e.E 3.e.] ..N.5.d 5 5 e { <.g.=.3.3.B p.$.E a.5.E h.p.` %.u.} $.n.0.< p g M +.b.&.:.y.H -.3.[ 8.%.<.p.3.<.3.%.5.{ N.y.j u e # ",
"3 . 7 N w.! u.3.{ y.*...#.*.g.0...j. .g.<.t.Z.] Z.] p u 3 } l.J e.l.J 0.3.X.*.3.p.:.5.9...g.=.*.b.%.s.g a 1 o.d.T u.:.J 9.e.} o.x.0.W p.0.L e.y.^ l.h.#.B 1 5 5 ",
"q w , @ ' s.=.H x.=.] 0.c.<.<.x.g.] G.k. .c.c...p.@.t d * t 3.0.=.T x.0.B h.h./ e.b.$.*.K.5.] H.l.` l.z d : 3 y.:.%.:.8.y.A a.s.P b.l.} e.N.<.#.Z.h.E V./ b 9 e ",
"7 3 & y +.u.} y.e.] x.k.*.g.e.<.e.c.e.e.Z.3.] G.l.B u % % J W l.} :.h.o.a.p.:.s.a.%.l.a.y.p.M.i.| Z.p.9 g 3 y ` p.3.` x.;.:.u.q.0.3.a.t.3.h.l.e.l.=.a.h.b e M e ",
"w & , M >.^ q.0...<.g.g. .e.G...y.m.%.G.6.y.e.*.x. .z e : ] e.T 5.c./ *.Z.y.} V.D.~ x.M. .D.p.<.u.y.s.p H y ` 3.~ :.y.` :.V.y.[ J.x.T D.C.! Z.N.o.0.b.0.u   t m ",
"w s 7 , X.y.4.A g.1.] e.m.*.5.m.p.~ S.p./ N.j.] 2.0.z F t a y.*.e.T i.p.P x.y. .y.c.*.:.D.e.~ C.x.J l.A G J z y.&.o.8.>.u.` b.0.{ D.a.%.l.l.3.*.C.p.T N.J % X B ",
"& t g y $.f.o.3.e.<.e.<.;.1.*.g.$.b.e.J B.y.! c.g.H 5 g B G ~ M.*.` l.e.:.1.3.<.@.b.y.%.p.%.g.i.` u.p.g y ~ z T M.0.A V.y.o.8.l.@.$.Z.#.} C.3.#.M.<.<.p.P # 5 5 ",
"@ & c S :.J 8.u.<.] g.1.L m.m.Z M.e.E l.6.5.3.i.M.J   d J [ 5./ %.j.5.L x.3.F b.p.H x.l.A h.l.%.8.x.l.2 3 H Y :.o.[ b.:.T x.0.A M.e.~ Z.i.A p.c. .$.G.y.n t 5 5 ",
"  o k 4 | 3.o.~ l.y.A b.g.] 5.g.<.~ M.r.b C.h.( e.@.% * b z 5.{ *.*.e.5.~ h.3.` M.0.] e.5.5.L C.p.~ b.g 8 j P 3.T u.3.&.a.` 3.3.%.N.#.*.0.3.*.<.h.Z.E b./ u 5 e ",
"@ . t y y :.^ A X.~ P m [ [ ] ..! { / T ] } ..@./ T   1 e 5 L *.] z #.} t } { ~ b e./ b %./ J o.} Y ` j y d $ %.` Y P ;.} D | ;.V E @.~ L <.P b @.] B *.B a e 5 ",
"& ,   + t h a 1 5 j d   d f d 2 g t g : $ d j t 5 g 9 ; X e j * : e 5 d * # g u # 1 g d 3   d j % 3 m A g ; t z a 3 e M m u t h g X * J B j b t g % 1 t u 5 M 5 ",
". . ,   9 y   4 t 5 a : * f e X 1 A u d 5 j y X 5 u u 1 p 5 % # X 9 V 9 5 d 1 e   3 d B d e : a ;   e J a z z 3 9 o t z Y j M g u % % 3 B T p d g 1   5 8   B a ",
"7 % + q V +.P a } G u o.L z L L F [ T T F  .E F @.d d t 5 t ~  .b z ( N g E J g ] / e [ ~ P J %.! M o.a b t 9 | ^ a x T ` x ` J x ` M a o.@.F E } } t / e   : g ",
"+ s 3 K 4.D u.3.J <.i.Y ] x.1.] b.t.F M.C.T l.C./ ] j b F @.%./ l.[ ] <.%.@.@.i.%.F V.8.F Z.p.~ h.b.P g b ` m :.e.:.X.<.X.{ :.} 3.*.` i.e.^ a.y...i.g.X.g * # 2 ",
"% , h i f.o.o.t.] *.] <.r. .e.;.[ c.a.%.y.h.0.%.l.] % g g L 0.} 3.e.M 5.5.~ <.3.<.e.3.l.3.#.b.0.0.d.<.g z A } :.N M.X.M u.3.J p.0. .g.e.=.5.h.l.*.8.C.@.F 1 3 # ",
"  & h w ' z.+.T l.%.m c.r.B g.y.6.#.M.p.E C.i.@.l.~ X e n d e.5.! %.g.o.V N.5.F x.e.] e.M.:.` D.y.T D.g 3 g p i.8.H y.3.^ { y.;.P x.6.~ C.p./ 5.Z.3.{ m.E * * * ",
"+ % < v >.X.6.:. ...g...] g.*.L b.a.H x.g.` l.c.o.J 1 5 : ! =.3.=.o.0.} &.2.} y...] m.5.] g.g.[ g.m...e q d M } e.;.} u. .} y.@.3.3./ x.1.<.y.<.:.i.p.<.j 5 * X ",
"& + 3 z u.^ e.r.] g.<.;...<.0.1...x.:.3.t.5.0.0.g.@.9 5 2 @.:.T G.3.J b.3.~ 1.8...5.5.g. .g.g.;.g.g...F d 5 ..3.A V.8.A l.e.T 8.9...*.c.<.} Z.p.} l.v.` L t e X ",
", , % & o.f.:.P x.<.L j.e.L e.N. .*.b.y.@.V.a.} h./ e * # 5 e.a.~ o.k.X.^ a.e.A m.e.[ g.m...e.S.e. .G.d m X u l.y.~ 0.:.o.;.3.3.! C.y.J M.a. .l.c.:.:.l.} u 9 5 ",
"& w @ z &.4.......] e...] e.*.E x.3.` y.a.1.e.x.6.h : e   ` @.i.@.T e.` %.0.} 1.1.[ e...1.e.g.<.5.m.<.5 d e j ..a.&.H l.@.E d.o.:.*.5.3.@.0.p.:.a.0.y.a.b b M 5 ",
"3 w . A c.~ 6.6.E <.#.*. .:.1.] 3.h./ u.l.<.l.6.6.%.e u # =.p.G l.3.B 9.0.] @.5...[ g.g.] g.B. .g.k.{ j V d ..e.H d.] ~ 8.8./ @.0.} } C.*.~ C.l.o.l.C.^ d 9 B d ",
"s y : 4 3.k.4.^ g...j k.e.L g.g.^ ;.M.5.#.D.i.] p.*.B a 9 a h.e.` <.:.` ~ 8.5.J m.1.[ g.g.[ 5.J.e.] c.d E e j Z.<.` y.} ` :.*.3.T x.<.J Z.0.` x.M.*.*.e.J   * F ",
"g w h c %.p...*.<.P 2.;.Q g.0.Q 5.5.e.o.0.h.! C.g.b d A a ] / N.3.R u.T { 3.} 0...1.<...m... .g...g.y.1 j ] j ..b.*.} 8.} A x.=.o.3.e.] 5.x.2.@.Z.<.%.x.F % * d ",
". w z K p.( B.0.] ;.5.<.[ e.0.E y.Z.^ a.c.o.p.i.e.[ % g F <.e.~ a.d.T %.y.o.} h.<.] m.g.] m.m.] x.x...d j E ] t.o.y.&.} o.0.X.T b.e.F G.p.^ a.x./ l.b.} M 5 5 1 ",
". . h i 4.u.0.{ l.#.M h.1.G g.e.} %.a.5.` D.y.} M.$.X t G A l.5.3.3.3.:.Y k.&.J g.y.T i.g.] 5.m.8.$.b.g 5 M H h.$.q.u._ 3.%.;.3.` y.<.` a.y.` l.e.6.5.b.! : 1 5 ",
"  @ y t +.A.&.o.3.} ..#.#.5. .i.2.<.k.` :.e.} h.i.F 1 ; b J ( N.u.P a.&.J 3.3.o.@.i.1. .G...] g.3.3.l.9 u g y 2.x.:.| s.;.g v.4.Y p.p.;.5.p.<.` Z.h.] h.[ 5 * 1 ",
"7 . 4 R 0.} 0.y.} [ t.*.E g.<.T x.h.J h.0.~ h.k.5.P t 3 t ..e.*.;.l.` ~ p.;.F k.y.Z G.0.j m.g.] e.s.:.g t 9 ~ 5.a.$.3.3.J y.o.T b.:.T N.5.A h.5.] } D.%.d 5 d # ",
"< y % 4 q.&.6.} e.3.P l.1.] B.g. .6.y.h.{ C.Z.T M.$.u p 2 J j./ 0.=.X.0.} ;.y.| S.<.] x.g... .m.x. .Z.8 a r E u.H e.y.I 0.3.} 4.%.b. .3.h.@.0.5.%.Z.$.g.H d 5 : ",
"w % 3 w J b.-.^ i.e.:.<.i.g. .G.5.%.D.e.p.v.@.p.b.P u 5 # d ^ x.&.Y b.4.! 0.D.} 1.x.g.] J.x...G.y.$.a.g h ; & 3.u.o.} y.y.I s.b.E p.C.@.=.H.h.] H.l.] b.! b 5 t ",
"w : , c -.:.` l.5.E H.c.E S.j.T D.l.#.c.Z.@.#.D.a.J d 5 # W o.5.} a.3.} b.h.} b.j.[ g.B.*.g.J.;. .Z.s.g 4 p P ~ k.X.+.v.} s.f.X.x.s.%.e.b.3.y.D.y.J J.s.5 e j b ",
"y 4 o s -.+.a.} $.l./ j.g.@.G.e.*.h.d.y.] Z.l.E h.*.B g : } t.F y.:.} z.3.a.3.y.B.1.g.j.5.x...j.n.~ b.z Y a Y y.z x.e.` f.0.l.&.Z.p. .Z.c.@.M.h.2.s.<.C.b X : b ",
"4 z 3 i ^ u.3.~ j.i. .5.j.#./ Z.p.` x.l.o.u.j.<.<.@.m A e b ..d.:.^ l.4.T z.0.o.<.c.1.[ G.0.[ B.q.$.3.M B ~ y 3.y.%.} e.u.Y b.y.` h.c.o.<.Z.6./ c.Z.J y.P X $ j ",
": 4 g z 4.,.^ b.y.F x.e.Y i.g...g.k.] ..c.t.P H.b.g % z M ` E b.[ 1.r.;.r.1.X.r.1.7.r.d.#.X.B.r.~ V.y.i q ~ c ^ z.+.' n.+.q.-.2.3...l.i.<.3.*.h.l.E x.l.J 5 2 2 ",
"  7 c c 4.Y 3.3.*.y.3.e.] e.g...e.=.<.g.@.h.l.] V.`   y A ] a.x r.v.X.#.r.#.[ g.v.Y j.9.) a.;.1.s.q.V., 3 h ' >.J u.f...| f.q.H C.i.F c.a.G M.e.{ v.k.a.B u e t ",
". : w w ^ q.0.A p.p.M e.j.] [ Z.5.T c.<.P m.p.2.:.*.o % u d @.8.X.W v.r.W v.1.Q 7.v.;.Q B.a.S J.l.~ -.C a c w 4...+.' y.f.U 3.y.P Z.p./ 3.h.*.~ Z.r.T x.` d 5 1 ",
"o @ 3 , : ` z u M M g u d F Q B j F V d p M P P j a X 9 * 9 b P k f k n < 0 Y S 0 S p n k 0 n S y S G x w + s J K s M ^ N k M R j e B G A V d B E d a P g d b 5 ",
"& .   % w y 5 y e 5 e * 5 j d % 5 b d * 5 j d * t z 3 # # e d   = 0 l r $ 2 k 8   p f n 6 8 p r %   M N i g a a y o 3 ~ A y v t d X $ B ~ B u a e 3 * 3 5 # d d ",
"& - + % 4 q . 1 d d * 8 2 d 1 * 5 Z d 9 d d d * 3 p z # 9 1 : t = 6 p 2 f < 2 6 > ; 2 l r 6 ; k t o 8 m N y - t 4 o w : K N q c g * % * d J j g d a   9 * X b e ",
", & & y ' f.+.! <.] ] 1.Y  .;.] <...;.<...5.] g.3.g j g t A @.5.#.n r.[ S r.[ ) ;.X.[ r.;.7.;.r.$.+.8.3 N h z 3.a.R ` :.' Y q.{ A t._ E 6.3.=.o.y.3.T e.m X ; j ",
"+ 4 g K y.v z.:.j e.5.L e.j.[ #.g.x.L G.g.[ B.g.^ 3.1 F z @.0.F v.7.G 7.7.Y X.v.#.[ M.a.I B.d.Y b.b.W b M Y { 5.Y z. .^ :.&._ $.h.}  .c.:.] x.h.F Z.l.T z e   ; ",
"  < z q y.2.^ 3.<. .] e.1.G x.e.[ g.g.....G.5.[ S.[ # d B Z 1.;.) r.[ X.;.;.7.) 7.r.X.x.r.X.r.B...2.c.d e b L #.} &.p.F @.5./ e.%.<.p.%.a.3.<.x.y.=.l.y.F 2 % 2 ",
"  @ w s ' l.<.P x...E e.5.*. .<.5.5.g.<...g.5.g.g.Z X 2 f d 5.g.#.) v.#.C d.7.) r.r.;.1.d.r.X.j.g.<.g.1 d j e e.0.~ @.l.@.F M.5.G l.y.[ p.Z.%.} D.e.W C.E 1 5   ",
"- o : T 4.R e.s.E 1.x.] [ g.<.] m.e.] B.m.] m.m.[ [ 2 2 * #.9.Q r.7.W r.7.#.[ a.;.I b.r.I v.d.Y x.c.] d j 2 ] ] :.6.} 3.o.:.&./ p.*.E c.0.! b.a./ C.h.o.d 1 5   ",
", , % y 2.+.i.%.*.0. .5.e.L g.r.] g.e...e.B.....m.[ d * # ] <.X.g.9.) g.#.#.r.[ r.r.X.d.7.;.j.d.=.6.g.j d 1 ] e.E k.h.A l.0.~ y.<.*.5.*.a.*.6.b.%.i.a.%.~ d 5 % ",
"+ : , w ! V.2.M c. .] g.<...<.e.;.[ B.1...B...g.j.F 2 e $ d X.B.X.Y v.;.Y d.;.W j.s. .%.B.e.] J.0.5.j.d d 2 8 g.g.E *.g.*.E N.<.J l.l.P a.x.3.o.H.3.{ G.] j j 1 ",
", q . J t...%.2.] ] g. .L g.1.L G.5.] m.m.[ B.m.#.] u e X [ 9. .#.[ X.[ d.7.Y a.%.I v.7.G x.g.[ c.c.[ d B 2 L  .e. .L e.] #.5.L 5.3./ h.3./ b.y.<.t.l.5.t a B e ",
"7 g   s x.{ 1.:.] ..] 5.1.F g.e.[ B.*.[ m.m.e.[ g.[ b * r [ v.) a.r.W #.1.X.;.X.7.1.;.j. .;.L.5.e.<.e.d j j  .g.Z c.9.j g.5.G g.3.@.%.t.e.%.*.G.3.e.x.} b 5 t b ",
"s y y s ] S.<.] g...F e.g. ...e...[ B.e.[ S.5.<.m.[ Z Z 2 k 7.d.#.) d.X.k N.7.) r.r.Q <.B.1.] S.g. .j.b F M e j.j.E 5.5.E ] r.1.E i.i.J y.l.:.#.Z.p.~ l.L X 5 b ",
"4 w v v q.8.&.4.{ H g.$.G m.5.L x.i...e.p...=.c.t.h s m m ' -.f.+.:.%.J 4.4.A l.6.^ a.<.#.5.j.;.#.N.5.3 B P B %.l.:.} 3.^  .e._ 3.y.} e.5.0.=.e.e...b.y.B % # d ",
"o % v D u.' c.t.#.3. .3.%.<.g.....j.<.2.6.g.p.2.c...o 3 U -.,.R F.4.R 0.3.^ 0.6.3.~ h.A.] 5.e.<.l.3.6.g t V *.a.A n.f.B 5.e.E $.l.;.T M.b.E x.l.o.x.h. .F 9 e % ",
"  3 s 3 &.l.e.! k.5.b t.6.G 5.g.:.! G.5.V Z.k...f...+ s m h q.f.+.' a.+.C f.+.J i.i.^ @.m.:.] Z.g.] c.j 9 z g h.0.%.6.q.o.^ 0.3.A x.e.J l.a.o.:.l.y.} Z.T 5 1 5 ",
". & q g 4.s.o.t.%.L e.%.Q j.*.#.6.h.( =.g... .x.k.g 3 9 3 R -.f.&.%.u.R &.&.o.<.:.<.p.:.;.5.1.<.} c.h.5 u t m @.C.;.` s.} ~ e.&.&.%.y.0.@.5.e.{ t.@.h.p.G % 9 % ",
"7 o 4 D w.` 0.0.{ ..6.*.] g.g.[ 0.c.] 1.e...j.<.h./ e 5 w $.f.H f.4.~ -.8.X.o.u.y.L l.M.F h.<.] l.y.3.y a u ` y.` l.3.Y  .p.^ ` c.y.J Z.a.B x.0./ e.x.@.b e e # ",
"9 q : , | q.3.J k.g.Z l.g.E k.c.5.] L.g.] J.m.[ t.5.t a 9 s 6.2.+.' q.>.J z.3.` N.i.] <.x.e. .G.b./ h.h y 8 g y.o.:.3.o.:. .:.8.~ D.3.T b.0.%.3.l.i./ Z.J j e 2 ",
", 3 , q | d.' 6.g...0.k.5.g.<.g.;.g.m.g.m.g.] m.M.B d 1 . j P V.&.o.n.o.,.4.b.3.3.x.y.5.Z.1.x.m.` l.x.p a % h E d.@.} a.y.~ d.b.:.#.D.6.3.D.a.&.H.2.3.m.J p b 9 ",
"y & : N :.` -.0...#.Z.t.Q Z.B.Q G.x...m.g.<.g.e.h.E j 4 * O.6.P >.w.' >.b.u.T Z.c.F C.C. .N.x.[ e.x.8.p H 8 P :.:.o.8.9.} b.b.J M.D.J M.c. .h.G.] 3.A.5.: 3 e B ",
"h 4 , q +.4.8.^ y.y.~ l.g.[ g.B.1.[ J.g.S B.v.Q i.*.G n ; G r.[ 0.o.-.f.^ n.u.o.M.M.[ a.m.1.[ S.c.E j.M T A H y.R a.3.T x.:.p.j.5.M.3.6.x.i.i.2.x.c./ Z.F X * b ",
"@ s 7 s ^ b.>.` s.3.%.<.g.9.] c.g.r.7.#.B.g.[ j.9.#.5 l Y l ` S.:.^ f.s.' 4.d.o. .g.j.X.j.r.9.g.%.8.u.z g / 3 $.s.3.A b.u.P l.3.` :.Z.<...B.y.} x.6.( i.T * 2 t ",
"o 4 N D :.o.X.b.*.! c.3.B j.g.G g.g.[ r.g.r.[ B.G.l = k n ) @.;.' q.>.T b.>.T n.e.` j.g.[ <.m.;.` J.a.1 9 J E } y.o.s.a.~ a.e.^ l.y.%.y.y.} *.N.<.*.Z.p.b t X e ",
"% + c 4 &.%.@.{ x.3.T b.5.] m.e.X.;.r.r.Z B.v.) r.%.  8 S ) 9.I f.>.q.0.X.,.;.%.j.<.#.9.1.;.#.g.n.T b.p % g ` 3.J 7.8.} 8.<. .&.5.b.` 0.k.] 3.3.3.l.*.N.P g g 3 ",
". @ i y H u.%.J 3.5.] } 3.#.E g.7.Q r.7.#.;.7.#.X.7.O O 0 6 ) r.~ U 3.4.A 4.y./ } c.o.T m.;.Q r.3...&.g g h : %.$.X.` u.8.Z a.3.T <.i...[ g.0.F l.a.G e.E e u 1 ",
"9 , i h   + & z e a 1 b d X # e Z r k 2 0 0 = f f O 6 0 O O   i v 7 k i , 3 : # 8 N e 8 2 ; = = g ~ g p * % : % z M a a a t 5 3 u g J 5 3 j : $ y u B j e 5 3 u ",
"7 , w @     a A u d 5 e * X 5 B Y k 8 l = - O x S x < 6 - - > i C 7 9 : s + X a F B e g 2 2 = r J t a u d 3 X t A A a A g g : % j T z g B u : $ j E m d z g g * ",
"4 9 ,   < 4 x h t 5 d t X * F G p k f k O - k C 0 i i 0   O < C y 9 h 4 4 & 3 B B % 3 5 n 2 2 l J 3 3 a a 5 % 5 M 9 3 g j a : a g d : a j u g * m j 1 e d B 5 d "
};
